<svg width="410" height="91" viewBox="0 0 410 91" fill="none" xmlns="http://www.w3.org/2000/svg">
<path d="M279.517 85V67.5455H283.148V74.108H283.259C283.418 73.7557 283.648 73.3977 283.949 73.0341C284.256 72.6648 284.653 72.358 285.142 72.1136C285.636 71.8636 286.25 71.7386 286.983 71.7386C287.938 71.7386 288.818 71.9886 289.625 72.4886C290.432 72.983 291.077 73.7301 291.56 74.7301C292.043 75.7244 292.284 76.9716 292.284 78.4716C292.284 79.9318 292.048 81.1648 291.577 82.1705C291.111 83.1705 290.474 83.929 289.668 84.446C288.866 84.9574 287.969 85.2131 286.974 85.2131C286.27 85.2131 285.67 85.0966 285.176 84.8636C284.688 84.6307 284.287 84.3381 283.974 83.9858C283.662 83.6278 283.423 83.267 283.259 82.9034H283.097V85H279.517ZM283.071 78.4545C283.071 79.233 283.179 79.9119 283.395 80.4915C283.611 81.071 283.923 81.5227 284.332 81.8466C284.741 82.1648 285.239 82.3239 285.824 82.3239C286.415 82.3239 286.915 82.1619 287.324 81.8381C287.733 81.5085 288.043 81.054 288.253 80.4744C288.469 79.8892 288.577 79.2159 288.577 78.4545C288.577 77.6989 288.472 77.0341 288.261 76.4602C288.051 75.8864 287.741 75.4375 287.332 75.1136C286.923 74.7898 286.42 74.6278 285.824 74.6278C285.233 74.6278 284.733 74.7841 284.324 75.0966C283.92 75.4091 283.611 75.8523 283.395 76.4261C283.179 77 283.071 77.6761 283.071 78.4545ZM296.526 89.9091C296.066 89.9091 295.634 89.8722 295.231 89.7983C294.833 89.7301 294.504 89.642 294.242 89.5341L295.06 86.8239C295.487 86.9545 295.87 87.0256 296.211 87.0369C296.558 87.0483 296.856 86.9688 297.106 86.7983C297.362 86.6278 297.569 86.3381 297.728 85.929L297.941 85.375L293.245 71.9091H297.063L299.773 81.5227H299.91L302.646 71.9091H306.489L301.401 86.4148C301.157 87.1193 300.825 87.733 300.404 88.2557C299.989 88.7841 299.464 89.1903 298.827 89.4744C298.191 89.7642 297.424 89.9091 296.526 89.9091ZM316.484 85L312.922 71.9091H316.595L318.624 80.7045H318.743L320.857 71.9091H324.462L326.609 80.6534H326.72L328.714 71.9091H332.379L328.825 85H324.982L322.732 76.767H322.57L320.32 85H316.484ZM339.954 85.2557C338.607 85.2557 337.448 84.983 336.477 84.4375C335.511 83.8864 334.766 83.108 334.244 82.1023C333.721 81.0909 333.46 79.8949 333.46 78.5142C333.46 77.1676 333.721 75.9858 334.244 74.9688C334.766 73.9517 335.502 73.1591 336.451 72.5909C337.406 72.0227 338.525 71.7386 339.809 71.7386C340.673 71.7386 341.477 71.8778 342.221 72.1562C342.971 72.429 343.624 72.8409 344.181 73.392C344.744 73.9432 345.181 74.6364 345.494 75.4716C345.806 76.3011 345.962 77.2727 345.962 78.3864V79.3835H334.908V77.1335H342.545C342.545 76.6108 342.431 76.1477 342.204 75.7443C341.977 75.3409 341.661 75.0256 341.258 74.7983C340.86 74.5653 340.397 74.4489 339.869 74.4489C339.317 74.4489 338.829 74.5767 338.403 74.8324C337.982 75.0824 337.653 75.4205 337.414 75.8466C337.175 76.267 337.053 76.7358 337.048 77.2528V79.392C337.048 80.0398 337.167 80.5994 337.406 81.071C337.65 81.5426 337.994 81.9062 338.437 82.1619C338.88 82.4176 339.406 82.5455 340.013 82.5455C340.417 82.5455 340.786 82.4886 341.121 82.375C341.457 82.2614 341.744 82.0909 341.982 81.8636C342.221 81.6364 342.403 81.358 342.528 81.0284L345.886 81.25C345.715 82.0568 345.366 82.7614 344.837 83.3636C344.315 83.9602 343.638 84.4261 342.809 84.7614C341.985 85.0909 341.033 85.2557 339.954 85.2557ZM348.332 85V71.9091H351.852V74.1932H351.988C352.227 73.3807 352.627 72.767 353.19 72.3523C353.752 71.9318 354.4 71.7216 355.133 71.7216C355.315 71.7216 355.511 71.733 355.721 71.7557C355.931 71.7784 356.116 71.8097 356.275 71.8494V75.071C356.104 75.0199 355.869 74.9744 355.567 74.9347C355.266 74.8949 354.991 74.875 354.741 74.875C354.207 74.875 353.729 74.9915 353.309 75.2244C352.894 75.4517 352.565 75.7699 352.32 76.179C352.082 76.5881 351.962 77.0597 351.962 77.5938V85H348.332ZM369.044 75.642L365.72 75.8466C365.663 75.5625 365.541 75.3068 365.354 75.0795C365.166 74.8466 364.919 74.6619 364.612 74.5256C364.311 74.3835 363.95 74.3125 363.53 74.3125C362.967 74.3125 362.493 74.4318 362.107 74.6705C361.72 74.9034 361.527 75.2159 361.527 75.608C361.527 75.9205 361.652 76.1847 361.902 76.4006C362.152 76.6165 362.581 76.7898 363.189 76.9205L365.558 77.3977C366.831 77.6591 367.78 78.0795 368.405 78.6591C369.03 79.2386 369.342 80 369.342 80.9432C369.342 81.8011 369.089 82.554 368.584 83.2017C368.084 83.8494 367.396 84.3551 366.521 84.7188C365.652 85.0767 364.649 85.2557 363.513 85.2557C361.78 85.2557 360.399 84.8949 359.371 84.1733C358.348 83.446 357.749 82.4574 357.572 81.2074L361.143 81.0199C361.251 81.5483 361.513 81.9517 361.928 82.2301C362.342 82.5028 362.874 82.6392 363.521 82.6392C364.158 82.6392 364.669 82.517 365.055 82.2727C365.447 82.0227 365.646 81.7017 365.652 81.3097C365.646 80.9801 365.507 80.7102 365.234 80.5C364.962 80.2841 364.541 80.1193 363.973 80.0057L361.706 79.554C360.428 79.2983 359.476 78.8551 358.851 78.2244C358.232 77.5937 357.922 76.7898 357.922 75.8125C357.922 74.9716 358.149 74.2472 358.604 73.6392C359.064 73.0312 359.709 72.5625 360.538 72.233C361.374 71.9034 362.351 71.7386 363.47 71.7386C365.124 71.7386 366.425 72.0881 367.374 72.7869C368.328 73.4858 368.885 74.4375 369.044 75.642ZM377.594 85.2557C376.248 85.2557 375.089 84.983 374.117 84.4375C373.151 83.8864 372.407 83.108 371.884 82.1023C371.362 81.0909 371.1 79.8949 371.1 78.5142C371.1 77.1676 371.362 75.9858 371.884 74.9688C372.407 73.9517 373.143 73.1591 374.092 72.5909C375.046 72.0227 376.165 71.7386 377.45 71.7386C378.313 71.7386 379.117 71.8778 379.862 72.1562C380.612 72.429 381.265 72.8409 381.822 73.392C382.384 73.9432 382.822 74.6364 383.134 75.4716C383.447 76.3011 383.603 77.2727 383.603 78.3864V79.3835H372.549V77.1335H380.185C380.185 76.6108 380.072 76.1477 379.844 75.7443C379.617 75.3409 379.302 75.0256 378.898 74.7983C378.501 74.5653 378.038 74.4489 377.509 74.4489C376.958 74.4489 376.469 74.5767 376.043 74.8324C375.623 75.0824 375.293 75.4205 375.055 75.8466C374.816 76.267 374.694 76.7358 374.688 77.2528V79.392C374.688 80.0398 374.808 80.5994 375.046 81.071C375.29 81.5426 375.634 81.9062 376.077 82.1619C376.521 82.4176 377.046 82.5455 377.654 82.5455C378.058 82.5455 378.427 82.4886 378.762 82.375C379.097 82.2614 379.384 82.0909 379.623 81.8636C379.862 81.6364 380.043 81.358 380.168 81.0284L383.526 81.25C383.356 82.0568 383.006 82.7614 382.478 83.3636C381.955 83.9602 381.279 84.4261 380.45 84.7614C379.626 85.0909 378.674 85.2557 377.594 85.2557ZM385.972 85V71.9091H389.492V74.1932H389.629C389.867 73.3807 390.268 72.767 390.83 72.3523C391.393 71.9318 392.04 71.7216 392.773 71.7216C392.955 71.7216 393.151 71.733 393.362 71.7557C393.572 71.7784 393.756 71.8097 393.915 71.8494V75.071C393.745 75.0199 393.509 74.9744 393.208 74.9347C392.907 74.8949 392.631 74.875 392.381 74.875C391.847 74.875 391.37 74.9915 390.95 75.2244C390.535 75.4517 390.205 75.7699 389.961 76.179C389.722 76.5881 389.603 77.0597 389.603 77.5938V85H385.972ZM399.082 81.233L399.091 76.8778H399.619L403.812 71.9091H407.98L402.347 78.4886H401.486L399.082 81.233ZM395.793 85V67.5455H399.423V85H395.793ZM403.974 85L400.122 79.2983L402.543 76.733L408.227 85H403.974Z" fill="#808080"/>
<path d="M57.8636 62V27.0909H67.25V33.1818H67.6136C68.25 31.0152 69.3182 29.3788 70.8182 28.2727C72.3182 27.1515 74.0455 26.5909 76 26.5909C76.4848 26.5909 77.0076 26.6212 77.5682 26.6818C78.1288 26.7424 78.6212 26.8258 79.0455 26.9318V35.5227C78.5909 35.3864 77.9621 35.2652 77.1591 35.1591C76.3561 35.053 75.6212 35 74.9545 35C73.5303 35 72.2576 35.3106 71.1364 35.9318C70.0303 36.5379 69.1515 37.3864 68.5 38.4773C67.8636 39.5682 67.5455 40.8258 67.5455 42.25V62H57.8636ZM93.0057 62.6591C90.7784 62.6591 88.7936 62.2727 87.0511 61.5C85.3087 60.7121 83.9299 59.553 82.9148 58.0227C81.9148 56.4773 81.4148 54.553 81.4148 52.25C81.4148 50.3106 81.7708 48.6818 82.483 47.3636C83.1951 46.0455 84.1648 44.9848 85.392 44.1818C86.6193 43.3788 88.0133 42.7727 89.5739 42.3636C91.1496 41.9545 92.8011 41.6667 94.5284 41.5C96.5587 41.2879 98.1951 41.0909 99.4375 40.9091C100.68 40.7121 101.581 40.4242 102.142 40.0455C102.703 39.6667 102.983 39.1061 102.983 38.3636V38.2273C102.983 36.7879 102.528 35.6742 101.619 34.8864C100.725 34.0985 99.4527 33.7045 97.8011 33.7045C96.0587 33.7045 94.6723 34.0909 93.642 34.8636C92.6117 35.6212 91.9299 36.5758 91.5966 37.7273L82.642 37C83.0966 34.8788 83.9905 33.0455 85.3239 31.5C86.6572 29.9394 88.3769 28.7424 90.483 27.9091C92.6042 27.0606 95.0587 26.6364 97.8466 26.6364C99.786 26.6364 101.642 26.8636 103.415 27.3182C105.203 27.7727 106.786 28.4773 108.165 29.4318C109.559 30.3864 110.657 31.6136 111.46 33.1136C112.263 34.5985 112.665 36.3788 112.665 38.4545V62H103.483V57.1591H103.21C102.65 58.25 101.9 59.2121 100.96 60.0455C100.021 60.8636 98.892 61.5076 97.5739 61.9773C96.2557 62.4318 94.733 62.6591 93.0057 62.6591ZM95.7784 55.9773C97.2027 55.9773 98.4602 55.697 99.5511 55.1364C100.642 54.5606 101.498 53.7879 102.119 52.8182C102.741 51.8485 103.051 50.75 103.051 49.5227V45.8182C102.748 46.0152 102.331 46.197 101.801 46.3636C101.286 46.5152 100.703 46.6591 100.051 46.7955C99.3996 46.9167 98.7481 47.0303 98.0966 47.1364C97.4451 47.2273 96.8542 47.3106 96.3239 47.3864C95.1875 47.553 94.1951 47.8182 93.3466 48.1818C92.4981 48.5455 91.839 49.0379 91.3693 49.6591C90.8996 50.2652 90.6648 51.0227 90.6648 51.9318C90.6648 53.25 91.142 54.2576 92.0966 54.9545C93.0663 55.6364 94.2936 55.9773 95.7784 55.9773ZM129.858 41.8182V62H120.176V27.0909H129.403V33.25H129.812C130.585 31.2197 131.881 29.6136 133.699 28.4318C135.517 27.2348 137.722 26.6364 140.312 26.6364C142.737 26.6364 144.85 27.1667 146.653 28.2273C148.456 29.2879 149.858 30.803 150.858 32.7727C151.858 34.7273 152.358 37.0606 152.358 39.7727V62H142.676V41.5C142.691 39.3636 142.146 37.697 141.04 36.5C139.934 35.2879 138.411 34.6818 136.472 34.6818C135.169 34.6818 134.017 34.9621 133.017 35.5227C132.032 36.0833 131.259 36.9015 130.699 37.9773C130.153 39.0379 129.873 40.3182 129.858 41.8182ZM175.716 75.8182C172.58 75.8182 169.89 75.3864 167.648 74.5227C165.42 73.6742 163.648 72.5152 162.33 71.0455C161.011 69.5758 160.155 67.9242 159.761 66.0909L168.716 64.8864C168.989 65.5833 169.42 66.2348 170.011 66.8409C170.602 67.447 171.383 67.9318 172.352 68.2955C173.337 68.6742 174.534 68.8636 175.943 68.8636C178.049 68.8636 179.784 68.3485 181.148 67.3182C182.527 66.303 183.216 64.5985 183.216 62.2045V55.8182H182.807C182.383 56.7879 181.746 57.7045 180.898 58.5682C180.049 59.4318 178.958 60.1364 177.625 60.6818C176.292 61.2273 174.701 61.5 172.852 61.5C170.231 61.5 167.845 60.8939 165.693 59.6818C163.557 58.4545 161.852 56.5833 160.58 54.0682C159.322 51.5379 158.693 48.3409 158.693 44.4773C158.693 40.5227 159.337 37.2197 160.625 34.5682C161.913 31.9167 163.625 29.9318 165.761 28.6136C167.913 27.2955 170.269 26.6364 172.83 26.6364C174.784 26.6364 176.42 26.9697 177.739 27.6364C179.057 28.2879 180.117 29.1061 180.92 30.0909C181.739 31.0606 182.367 32.0152 182.807 32.9545H183.17V27.0909H192.784V62.3409C192.784 65.3106 192.057 67.7955 190.602 69.7955C189.148 71.7955 187.133 73.2955 184.557 74.2955C181.996 75.3106 179.049 75.8182 175.716 75.8182ZM175.92 54.2273C177.481 54.2273 178.799 53.8409 179.875 53.0682C180.966 52.2803 181.799 51.1591 182.375 49.7045C182.966 48.2348 183.261 46.4773 183.261 44.4318C183.261 42.3864 182.973 40.6136 182.398 39.1136C181.822 37.5985 180.989 36.4242 179.898 35.5909C178.807 34.7576 177.481 34.3409 175.92 34.3409C174.33 34.3409 172.989 34.7727 171.898 35.6364C170.807 36.4848 169.981 37.6667 169.42 39.1818C168.86 40.697 168.58 42.447 168.58 44.4318C168.58 46.447 168.86 48.1894 169.42 49.6591C169.996 51.1136 170.822 52.2424 171.898 53.0455C172.989 53.8333 174.33 54.2273 175.92 54.2273ZM216.398 62.6818C212.807 62.6818 209.716 61.9545 207.125 60.5C204.549 59.0303 202.564 56.9545 201.17 54.2727C199.777 51.5758 199.08 48.3864 199.08 44.7045C199.08 41.1136 199.777 37.9621 201.17 35.25C202.564 32.5379 204.527 30.4242 207.057 28.9091C209.602 27.3939 212.587 26.6364 216.011 26.6364C218.314 26.6364 220.458 27.0076 222.443 27.75C224.443 28.4773 226.186 29.5758 227.67 31.0455C229.17 32.5152 230.337 34.3636 231.17 36.5909C232.004 38.803 232.42 41.3939 232.42 44.3636V47.0227H202.943V41.0227H223.307C223.307 39.6288 223.004 38.3939 222.398 37.3182C221.792 36.2424 220.951 35.4015 219.875 34.7955C218.814 34.1742 217.58 33.8636 216.17 33.8636C214.701 33.8636 213.398 34.2045 212.261 34.8864C211.14 35.553 210.261 36.4545 209.625 37.5909C208.989 38.7121 208.663 39.9621 208.648 41.3409V47.0455C208.648 48.7727 208.966 50.2652 209.602 51.5227C210.254 52.7803 211.17 53.75 212.352 54.4318C213.534 55.1136 214.936 55.4545 216.557 55.4545C217.633 55.4545 218.617 55.303 219.511 55C220.405 54.697 221.17 54.2424 221.807 53.6364C222.443 53.0303 222.928 52.2879 223.261 51.4091L232.216 52C231.761 54.1515 230.83 56.0303 229.42 57.6364C228.027 59.2273 226.223 60.4697 224.011 61.3636C221.814 62.2424 219.277 62.6818 216.398 62.6818ZM253.733 62V15.4545H263.574V34.6591H283.551V15.4545H293.369V62H283.551V42.7727H263.574V62H253.733ZM311.256 62.6591C309.028 62.6591 307.044 62.2727 305.301 61.5C303.559 60.7121 302.18 59.553 301.165 58.0227C300.165 56.4773 299.665 54.553 299.665 52.25C299.665 50.3106 300.021 48.6818 300.733 47.3636C301.445 46.0455 302.415 44.9848 303.642 44.1818C304.869 43.3788 306.263 42.7727 307.824 42.3636C309.4 41.9545 311.051 41.6667 312.778 41.5C314.809 41.2879 316.445 41.0909 317.688 40.9091C318.93 40.7121 319.831 40.4242 320.392 40.0455C320.953 39.6667 321.233 39.1061 321.233 38.3636V38.2273C321.233 36.7879 320.778 35.6742 319.869 34.8864C318.975 34.0985 317.703 33.7045 316.051 33.7045C314.309 33.7045 312.922 34.0909 311.892 34.8636C310.862 35.6212 310.18 36.5758 309.847 37.7273L300.892 37C301.347 34.8788 302.241 33.0455 303.574 31.5C304.907 29.9394 306.627 28.7424 308.733 27.9091C310.854 27.0606 313.309 26.6364 316.097 26.6364C318.036 26.6364 319.892 26.8636 321.665 27.3182C323.453 27.7727 325.036 28.4773 326.415 29.4318C327.809 30.3864 328.907 31.6136 329.71 33.1136C330.513 34.5985 330.915 36.3788 330.915 38.4545V62H321.733V57.1591H321.46C320.9 58.25 320.15 59.2121 319.21 60.0455C318.271 60.8636 317.142 61.5076 315.824 61.9773C314.506 62.4318 312.983 62.6591 311.256 62.6591ZM314.028 55.9773C315.453 55.9773 316.71 55.697 317.801 55.1364C318.892 54.5606 319.748 53.7879 320.369 52.8182C320.991 51.8485 321.301 50.75 321.301 49.5227V45.8182C320.998 46.0152 320.581 46.197 320.051 46.3636C319.536 46.5152 318.953 46.6591 318.301 46.7955C317.65 46.9167 316.998 47.0303 316.347 47.1364C315.695 47.2273 315.104 47.3106 314.574 47.3864C313.438 47.553 312.445 47.8182 311.597 48.1818C310.748 48.5455 310.089 49.0379 309.619 49.6591C309.15 50.2652 308.915 51.0227 308.915 51.9318C308.915 53.25 309.392 54.2576 310.347 54.9545C311.316 55.6364 312.544 55.9773 314.028 55.9773ZM354.199 62.6818C350.623 62.6818 347.547 61.9242 344.972 60.4091C342.411 58.8788 340.441 56.7576 339.062 54.0455C337.699 51.3333 337.017 48.2121 337.017 44.6818C337.017 41.1061 337.706 37.9697 339.085 35.2727C340.479 32.5606 342.456 30.447 345.017 28.9318C347.578 27.4015 350.623 26.6364 354.153 26.6364C357.199 26.6364 359.866 27.1894 362.153 28.2955C364.441 29.4015 366.252 30.9545 367.585 32.9545C368.919 34.9545 369.653 37.303 369.79 40H360.653C360.396 38.2576 359.714 36.8561 358.608 35.7955C357.517 34.7197 356.085 34.1818 354.312 34.1818C352.812 34.1818 351.502 34.5909 350.381 35.4091C349.275 36.2121 348.411 37.3864 347.79 38.9318C347.169 40.4773 346.858 42.3485 346.858 44.5455C346.858 46.7727 347.161 48.6667 347.767 50.2273C348.388 51.7879 349.259 52.9773 350.381 53.7955C351.502 54.6136 352.812 55.0227 354.312 55.0227C355.419 55.0227 356.411 54.7955 357.29 54.3409C358.184 53.8864 358.919 53.2273 359.494 52.3636C360.085 51.4848 360.472 50.4318 360.653 49.2045H369.79C369.638 51.8712 368.911 54.2197 367.608 56.25C366.32 58.2652 364.54 59.8409 362.267 60.9773C359.994 62.1136 357.305 62.6818 354.199 62.6818ZM384.761 51.9545L384.784 40.3409H386.193L397.375 27.0909H408.489L393.466 44.6364H391.17L384.761 51.9545ZM375.989 62V15.4545H385.67V62H375.989ZM397.807 62L387.534 46.7955L393.989 39.9545L409.148 62H397.807Z" fill="white"/>
<path fill-rule="evenodd" clip-rule="evenodd" d="M27 11C41.9117 11 54 23.0883 54 38C54 52.9117 41.9117 65 27 65C12.0883 65 0 52.9117 0 38C0 23.0883 12.0883 11 27 11ZM27 20.3457C17.2501 20.3457 9.3457 28.2501 9.3457 38C9.3457 47.75 17.2501 55.6543 27 55.6543C36.75 55.6543 44.6543 47.75 44.6543 38C44.6543 28.2501 36.75 20.3457 27 20.3457Z" fill="#FF7518"/>
</svg>
